<mxfile host="65bd71144e">
    <diagram id="cD52tqRjU22jmfu8s6Lm" name="Page-1">
        <mxGraphModel dx="1733" dy="1598" grid="1" gridSize="10" guides="1" tooltips="1" connect="1" arrows="1" fold="1" page="1" pageScale="1" pageWidth="850" pageHeight="1100" math="0" shadow="0">
            <root>
                <mxCell id="0"/>
                <mxCell id="1" parent="0"/>
                <mxCell id="142" value="" style="rounded=0;whiteSpace=wrap;html=1;strokeColor=none;" parent="1" vertex="1">
                    <mxGeometry x="-160" y="-160" width="320" height="320" as="geometry"/>
                </mxCell>
                <mxCell id="44" value="" style="rounded=0;whiteSpace=wrap;html=1;strokeColor=none;sketch=1;fillStyle=cross-hatch;fillColor=#E6E6E6;strokeWidth=1;" parent="1" vertex="1">
                    <mxGeometry x="-160" y="-160" width="320" height="320" as="geometry"/>
                </mxCell>
                <mxCell id="143" value="" style="endArrow=block;dashed=1;html=1;fontFamily=Lucida Console;dashPattern=1 2;entryX=0;entryY=0.5;entryDx=0;entryDy=0;exitX=0.125;exitY=0.5;exitDx=0;exitDy=0;exitPerimeter=0;endFill=1;endSize=4;" parent="1" edge="1">
                    <mxGeometry width="50" height="50" relative="1" as="geometry">
                        <mxPoint x="-160" as="sourcePoint"/>
                        <mxPoint x="-120" as="targetPoint"/>
                    </mxGeometry>
                </mxCell>
                <mxCell id="144" value="innerMargin.left" style="rounded=0;whiteSpace=wrap;html=1;fillColor=none;fontFamily=Lucida Console;strokeColor=none;align=right;" parent="1" vertex="1">
                    <mxGeometry x="-290" y="-10" width="120" height="20" as="geometry"/>
                </mxCell>
                <mxCell id="145" value="" style="endArrow=none;dashed=1;html=1;fontFamily=Lucida Console;" parent="1" edge="1">
                    <mxGeometry width="50" height="50" relative="1" as="geometry">
                        <mxPoint x="-120.67000000000002" y="-120.67000000000002" as="sourcePoint"/>
                        <mxPoint x="-120.67000000000002" y="119.32999999999998" as="targetPoint"/>
                    </mxGeometry>
                </mxCell>
                <mxCell id="146" value="" style="endArrow=none;dashed=1;html=1;fontFamily=Lucida Console;" parent="1" edge="1">
                    <mxGeometry width="50" height="50" relative="1" as="geometry">
                        <mxPoint x="119.33000000000004" y="-120.67000000000002" as="sourcePoint"/>
                        <mxPoint x="-120.67000000000002" y="-120.67000000000002" as="targetPoint"/>
                    </mxGeometry>
                </mxCell>
                <mxCell id="147" value="" style="endArrow=none;dashed=1;html=1;fontFamily=Lucida Console;" parent="1" edge="1">
                    <mxGeometry width="50" height="50" relative="1" as="geometry">
                        <mxPoint x="119.33000000000004" y="-120.67000000000002" as="sourcePoint"/>
                        <mxPoint x="119.33000000000004" y="119.32999999999998" as="targetPoint"/>
                    </mxGeometry>
                </mxCell>
                <mxCell id="148" value="" style="endArrow=none;dashed=1;html=1;fontFamily=Lucida Console;" parent="1" edge="1">
                    <mxGeometry width="50" height="50" relative="1" as="geometry">
                        <mxPoint x="119.33000000000004" y="119.32999999999998" as="sourcePoint"/>
                        <mxPoint x="-120.67000000000002" y="119.32999999999998" as="targetPoint"/>
                    </mxGeometry>
                </mxCell>
                <mxCell id="149" value="" style="endArrow=none;dashed=1;html=1;fontFamily=Lucida Console;" parent="1" edge="1">
                    <mxGeometry width="50" height="50" relative="1" as="geometry">
                        <mxPoint x="-0.22000000000002728" y="120" as="sourcePoint"/>
                        <mxPoint x="-0.22000000000002728" y="-120" as="targetPoint"/>
                    </mxGeometry>
                </mxCell>
                <mxCell id="150" value="" style="endArrow=none;dashed=1;html=1;fontFamily=Lucida Console;spacing=2;" parent="1" edge="1">
                    <mxGeometry width="50" height="50" relative="1" as="geometry">
                        <mxPoint x="120" y="-0.1799999999999784" as="sourcePoint"/>
                        <mxPoint x="-120.00000000000011" y="-0.1799999999999784" as="targetPoint"/>
                    </mxGeometry>
                </mxCell>
                <mxCell id="151" value="" style="endArrow=block;dashed=1;html=1;fontFamily=Lucida Console;dashPattern=1 2;exitX=0.5;exitY=0;exitDx=0;exitDy=0;endFill=1;endSize=4;" parent="1" edge="1">
                    <mxGeometry width="50" height="50" relative="1" as="geometry">
                        <mxPoint y="-160" as="sourcePoint"/>
                        <mxPoint y="-120" as="targetPoint"/>
                    </mxGeometry>
                </mxCell>
                <mxCell id="152" value="" style="endArrow=block;dashed=1;html=1;fontFamily=Lucida Console;dashPattern=1 2;entryX=0;entryY=0.5;entryDx=0;entryDy=0;exitX=0.125;exitY=0.5;exitDx=0;exitDy=0;exitPerimeter=0;endFill=1;endSize=4;" parent="1" edge="1">
                    <mxGeometry width="50" height="50" relative="1" as="geometry">
                        <mxPoint x="160" y="-0.28999999999999204" as="sourcePoint"/>
                        <mxPoint x="120" y="-0.28999999999999204" as="targetPoint"/>
                    </mxGeometry>
                </mxCell>
                <mxCell id="153" value="" style="endArrow=block;dashed=1;html=1;fontFamily=Lucida Console;dashPattern=1 2;entryX=0.5;entryY=1;entryDx=0;entryDy=0;endFill=1;endSize=4;" parent="1" edge="1">
                    <mxGeometry width="50" height="50" relative="1" as="geometry">
                        <mxPoint y="160" as="sourcePoint"/>
                        <mxPoint y="120" as="targetPoint"/>
                    </mxGeometry>
                </mxCell>
                <mxCell id="154" value="innerMargin.right" style="rounded=0;whiteSpace=wrap;html=1;fillColor=none;fontFamily=Lucida Console;strokeColor=none;align=left;" parent="1" vertex="1">
                    <mxGeometry x="170" y="-10" width="120" height="20" as="geometry"/>
                </mxCell>
                <mxCell id="155" value="innerMargin.bottom" style="rounded=0;whiteSpace=wrap;html=1;fillColor=none;fontFamily=Lucida Console;strokeColor=none;align=center;" parent="1" vertex="1">
                    <mxGeometry x="-60" y="160" width="120" height="20" as="geometry"/>
                </mxCell>
                <mxCell id="156" value="innerMargin.top" style="rounded=0;whiteSpace=wrap;html=1;fillColor=none;fontFamily=Lucida Console;strokeColor=none;align=center;" parent="1" vertex="1">
                    <mxGeometry x="-60" y="-180" width="120" height="20" as="geometry"/>
                </mxCell>
                <mxCell id="157" value="(0, 0)" style="rounded=0;whiteSpace=wrap;html=1;fillColor=none;fontFamily=Lucida Console;strokeColor=none;align=center;" parent="1" vertex="1">
                    <mxGeometry x="-120" y="-120" width="120" height="120" as="geometry"/>
                </mxCell>
                <mxCell id="158" value="(1, 0)" style="rounded=0;whiteSpace=wrap;html=1;fillColor=none;fontFamily=Lucida Console;strokeColor=none;align=center;" parent="1" vertex="1">
                    <mxGeometry y="-120" width="120" height="120" as="geometry"/>
                </mxCell>
                <mxCell id="159" value="(1, 0)" style="rounded=0;whiteSpace=wrap;html=1;fillColor=none;fontFamily=Lucida Console;strokeColor=none;align=center;" parent="1" vertex="1">
                    <mxGeometry x="-120" width="120" height="120" as="geometry"/>
                </mxCell>
                <mxCell id="160" value="(1, 1)" style="rounded=0;whiteSpace=wrap;html=1;fillColor=none;fontFamily=Lucida Console;strokeColor=none;align=center;" parent="1" vertex="1">
                    <mxGeometry width="120" height="120" as="geometry"/>
                </mxCell>
                <mxCell id="162" value="" style="endArrow=none;html=1;entryX=1;entryY=0;entryDx=0;entryDy=0;exitX=0;exitY=0;exitDx=0;exitDy=0;" edge="1" parent="1" source="44" target="44">
                    <mxGeometry width="50" height="50" relative="1" as="geometry">
                        <mxPoint x="-210" y="-170" as="sourcePoint"/>
                        <mxPoint x="-160" y="-220" as="targetPoint"/>
                    </mxGeometry>
                </mxCell>
                <mxCell id="163" value="" style="endArrow=none;html=1;entryX=0;entryY=0;entryDx=0;entryDy=0;exitX=0;exitY=1;exitDx=0;exitDy=0;" edge="1" parent="1" source="44" target="44">
                    <mxGeometry width="50" height="50" relative="1" as="geometry">
                        <mxPoint x="-340" y="-70" as="sourcePoint"/>
                        <mxPoint x="-290" y="-120" as="targetPoint"/>
                    </mxGeometry>
                </mxCell>
                <mxCell id="165" value="" style="endArrow=none;html=1;entryX=1;entryY=1;entryDx=0;entryDy=0;" edge="1" parent="1" target="44">
                    <mxGeometry width="50" height="50" relative="1" as="geometry">
                        <mxPoint x="-160" y="160" as="sourcePoint"/>
                        <mxPoint x="-150" y="-150" as="targetPoint"/>
                    </mxGeometry>
                </mxCell>
                <mxCell id="166" value="" style="endArrow=none;html=1;entryX=1;entryY=0;entryDx=0;entryDy=0;exitX=1;exitY=1;exitDx=0;exitDy=0;" edge="1" parent="1" source="44" target="44">
                    <mxGeometry width="50" height="50" relative="1" as="geometry">
                        <mxPoint x="90" y="-210" as="sourcePoint"/>
                        <mxPoint x="140" y="-260" as="targetPoint"/>
                    </mxGeometry>
                </mxCell>
            </root>
        </mxGraphModel>
    </diagram>
</mxfile>